<svg width="22" height="22" viewBox="0 0 22 22" fill="none" xmlns="http://www.w3.org/2000/svg">
<rect x="-0.5" y="0.5" width="8" height="9" transform="matrix(-1 0 0 1 17 8)" fill="#B3B3B3" stroke="#B3B3B3"/>
<path d="M2 11H8L5 15L2 11Z" fill="#B3B3B3"/>
<path d="M13 3C13.5523 3 14 3.44772 14 4C14 4.55228 13.5523 5 13 5V3ZM13 5C11.5169 5 10.3388 5.06275 9.39764 5.23387C8.46037 5.40428 7.82464 5.67091 7.3747 6.03087C6.51264 6.72051 6 8.03546 6 11H4C4 7.96454 4.48736 5.77949 6.1253 4.46913C6.92536 3.82909 7.91463 3.47072 9.03986 3.26613C10.1612 3.06225 11.4831 3 13 3V5Z" fill="#B3B3B3"/>
</svg>
