<svg width="22" height="22" viewBox="0 0 22 22" fill="none" xmlns="http://www.w3.org/2000/svg">
<rect x="4.5" y="8.5" width="8" height="9" fill="#B3B3B3" stroke="#B3B3B3"/>
<path d="M20 11H14L17 15L20 11Z" fill="#B3B3B3"/>
<path d="M9 3C8.44772 3 8 3.44772 8 4C8 4.55228 8.44772 5 9 5V3ZM9 5C10.4831 5 11.6612 5.06275 12.6024 5.23387C13.5396 5.40428 14.1754 5.67091 14.6253 6.03087C15.4874 6.72051 16 8.03546 16 11H18C18 7.96454 17.5126 5.77949 15.8747 4.46913C15.0746 3.82909 14.0854 3.47072 12.9601 3.26613C11.8388 3.06225 10.5169 3 9 3V5Z" fill="#B3B3B3"/>
</svg>
